<?xml version="1.0" encoding="UTF-8" standalone="no"?>
<!-- Created with Inkscape (http://www.inkscape.org/) -->

<svg
   width="210mm"
   height="297mm"
   viewBox="0 0 210 297"
   version="1.1"
   id="svg1"
   xml:space="preserve"
   inkscape:version="1.4 (86a8ad7, 2024-10-11)"
   sodipodi:docname="ifnexus-logo.svg"
   xmlns:inkscape="http://www.inkscape.org/namespaces/inkscape"
   xmlns:sodipodi="http://sodipodi.sourceforge.net/DTD/sodipodi-0.dtd"
   xmlns="http://www.w3.org/2000/svg"
   xmlns:svg="http://www.w3.org/2000/svg"><sodipodi:namedview
     id="namedview1"
     pagecolor="#ffffff"
     bordercolor="#000000"
     borderopacity="0.25"
     inkscape:showpageshadow="2"
     inkscape:pageopacity="0.0"
     inkscape:pagecheckerboard="0"
     inkscape:deskcolor="#d1d1d1"
     inkscape:document-units="mm"
     inkscape:zoom="0.68862935"
     inkscape:cx="243.96288"
     inkscape:cy="619.34624"
     inkscape:window-width="1920"
     inkscape:window-height="991"
     inkscape:window-x="-9"
     inkscape:window-y="-9"
     inkscape:window-maximized="1"
     inkscape:current-layer="layer1" /><defs
     id="defs1" /><g
     inkscape:label="Camada 1"
     inkscape:groupmode="layer"
     id="layer1"><path
       style="fill:#ffffff;stroke-width:1.5062;stroke-dasharray:none"
       d="m 109.84969,200.06131 c -3.79562,-2.00478 -4.29981,-2.92253 -2.62329,-4.77506 1.25714,-1.38914 1.55997,-1.41622 3.6647,-0.32784 1.85985,0.96176 2.29433,1.71086 2.29433,3.95557 0,1.52304 -0.0898,2.7533 -0.19912,2.73393 -0.10965,-0.0181 -1.52099,-0.73334 -3.13647,-1.5866 z m -54.050392,-7.54403 c 0,-7.5452 0.0069,-7.57177 1.992576,-7.57177 1.095915,0 1.992573,0.40257 1.992573,0.89462 0,0.6254 0.35329,0.60142 1.17399,-0.0798 1.733338,-1.43854 6.653669,-1.19104 8.43879,0.42448 1.279274,1.15772 1.545633,2.47628 1.545633,7.65148 0,6.13818 -0.03648,6.25268 -1.992573,6.25268 -1.844227,0 -1.993386,-0.28196 -2.003459,-3.78589 -0.01717,-5.9715 -0.629663,-7.37251 -3.223154,-7.37251 -2.841658,0 -3.205691,0.62727 -3.731899,6.43035 -0.391422,4.3167 -0.592457,4.72805 -2.310601,4.72805 -1.845751,0 -1.881876,-0.1452 -1.881876,-7.57178 z m 25.106431,6.60914 c -2.614596,-1.49948 -3.534509,-3.23535 -3.561286,-6.72008 -0.02982,-3.89093 1.734709,-6.40366 5.155343,-7.341 4.941211,-1.35404 9.490737,1.30539 10.451546,6.10944 l 0.03741,2.28487 -5.208635,0.25304 c -5.72355,0.27835 -7.059599,0.79901 -4.028283,2.4213 1.142556,0.61149 2.353991,0.63815 3.936143,0.0865 1.791706,-0.62459 2.504963,-0.53244 3.300798,0.42649 0.840859,1.01316 0.754674,1.41375 -0.501847,2.33253 -1.823128,1.33311 -7.364486,1.41791 -9.58119,0.14671 z m 7.571781,-8.50412 c 0,-1.45408 -2.423616,-2.65331 -4.373313,-2.16398 -3.336956,0.83754 -2.49842,2.86343 1.185193,2.86343 1.753464,0 3.18812,-0.31476 3.18812,-0.69945 z m 33.47523,7.87272 c -1.31067,-1.31066 -1.59404,-2.65678 -1.59404,-7.57178 0,-5.84489 0.0443,-5.97773 1.99258,-5.97773 1.87518,0 1.99254,0.24942 1.99254,4.23133 0,5.01377 1.28925,7.19034 4.02984,6.80352 1.81822,-0.25665 1.9636,-0.63311 2.18356,-5.6549 0.23557,-5.37468 0.23798,-5.37995 2.59036,-5.37995 h 2.35466 v 7.57177 c 0,7.54524 -0.006,7.57178 -1.99257,7.57178 -1.09591,0 -1.99255,-0.43038 -1.99255,-0.95644 0,-0.74388 -0.21267,-0.74388 -0.95644,0 -1.55548,1.55548 -6.80358,1.16673 -8.60794,-0.6376 z m 20.03971,0.88432 c -0.6686,-0.42364 -0.88067,-1.31829 -0.55543,-2.34304 0.44412,-1.39929 0.83832,-1.53907 2.52828,-0.89655 2.9153,1.10841 5.88347,0.94188 5.88347,-0.33004 0,-0.6367 -1.20321,-1.28653 -2.88846,-1.56 -5.3964,-0.87573 -7.44071,-4.55423 -4.2848,-7.71013 1.20342,-1.20343 2.65678,-1.59407 5.93068,-1.59407 4.51182,0 5.56142,0.59407 4.75636,2.69208 -0.37344,0.97319 -1.23628,1.13776 -3.98775,0.76063 -2.84535,-0.39001 -3.51115,-0.24731 -3.51115,0.75256 0,0.81934 1.07627,1.41565 3.20389,1.77511 1.76216,0.29763 3.7348,1.07221 4.38367,1.72105 1.7323,1.73233 1.44182,4.77708 -0.59167,6.2014 -1.911,1.33853 -9.04269,1.687 -10.86709,0.531 z m -41.55951,-3.11602 c 0,-1.2274 0.38772,-2.6194 0.86163,-3.09328 0.61745,-0.61745 0.387,-1.7919 -0.81325,-4.14455 l -1.674835,-3.28296 h 2.766225 c 1.79996,0 3.04411,0.48719 3.56188,1.39483 0.69279,1.21438 0.91417,1.05973 1.71165,-1.19556 0.68926,-1.94935 1.38971,-2.59036 2.83054,-2.59036 2.46383,0 2.53164,2.20724 0.21478,6.99324 -1.50445,3.1078 -6.93725,8.15034 -8.78114,8.15034 -0.3726,0 -0.67745,-1.00427 -0.67745,-2.2317 z m 15.13518,-22.09981 c -3.10789,-8.17437 -6.15845,-25.55529 -6.85067,-39.03235 -1.15878,-22.56208 3.7103,-40.358588 13.60147,-49.713248 4.54715,-4.300532 12.1448,-8.372172 17.36772,-9.307552 l 2.98887,-0.5353 v 11.980842 11.9808 l -2.30515,0.506298 c -3.7028,0.81325 -9.42445,4.87264 -11.48535,8.14858 -1.96661,3.12606 -3.26676,6.71819 -4.04351,11.17156 l -0.44713,2.56361 8.54279,0.22593 8.54282,0.22593 0.23015,6.97399 0.23014,6.97403 h -8.80531 -8.80532 l 0.46818,4.58291 c 1.03392,10.12104 4.60719,25.37039 7.93736,33.87374 0.4994,1.27518 -0.18044,1.3948 -7.92754,1.3948 -8.33014,0 -8.48682,-0.034 -9.23979,-2.01466 z m -40.215084,0.22141 c -2.184778,-6.76044 -3.335718,-36.92331 -1.763935,-46.22769 l 0.63955,-3.78589 h 8.815981 8.815979 l -0.37207,7.3725 c -0.204632,4.0549 -0.08366,11.35532 0.268856,16.22316 0.546081,7.54105 1.303439,11.88827 4.46358,25.6209 0.411854,1.78973 0.391732,1.79331 -10.066641,1.79331 -7.68038,0 -10.565309,-0.26599 -10.801285,-0.99629 z m 3.552014,-61.37127 c -4.503301,-3.06491 -5.969617,-5.73747 -5.969617,-10.88038 0,-3.795978 0.384881,-5.091128 2.233034,-7.514178 1.228165,-1.61019 3.272669,-3.46525 4.543339,-4.12234 5.527398,-2.85834 13.907504,-0.28919 16.900903,5.18153 2.042373,3.73257 1.655009,10.671348 -0.787199,14.101108 -3.597466,5.05218 -11.913754,6.64182 -16.92046,3.23426 z"
       id="path31"
       sodipodi:nodetypes="sssscsscsscssssssscccssscsscssccssssssssscscssscsssssssssssssssssscsssssssscssscccssscccccccsssccsscccsssssssssssss" /></g></svg>
